<svg height="512" viewBox="0 0 128 128" width="512" xmlns="http://www.w3.org/2000/svg">
	<g>
		<g fill="#efe1cb">
			<path d="m111.875 39.508h-7.56a1.75 1.75 0 0 1 0-3.5h7.56a1.75 1.75 0 0 1 0 3.5z" />
			<path d="m23.685 39.508h-7.56a1.75 1.75 0 0 1 0-3.5h7.56a1.75 1.75 0 0 1 0 3.5z" />
			<path d="m111.875 65.747h-7.56a1.75 1.75 0 0 1 0-3.5h7.56a1.75 1.75 0 0 1 0 3.5z" />
			<path d="m23.685 65.747h-7.56a1.75 1.75 0 0 1 0-3.5h7.56a1.75 1.75 0 1 1 0 3.5z" />
			<path d="m111.875 91.986h-7.56a1.75 1.75 0 0 1 0-3.5h7.56a1.75 1.75 0 0 1 0 3.5z" />
			<path d="m23.685 91.986h-7.56a1.75 1.75 0 0 1 0-3.5h7.56a1.75 1.75 0 1 1 0 3.5z" />
		</g>
		<rect fill="#2d3c6b" height="124.5" rx="5" width="80.63" x="23.685" y="1.747" />
		<path d="m33.685 11.747h60.63v104.5h-60.63z" fill="#8eef5b" />
		<rect fill="#4fabf7" height="12.5" rx="2" width="14.375" x="1.75" y="31.508" />
		<rect fill="#4fabf7" height="12.5" rx="2" width="14.375" x="111.875" y="31.508" />
		<path d="m94.315 36.008h-11.534a1.75 1.75 0 0 0 0 3.5h11.534z" fill="#fcf9f0" />
		<path d="m71.844 39.508h-15.688a1.75 1.75 0 0 1 0-3.5h15.688a1.75 1.75 0 0 1 0 3.5z" fill="#fcf9f0" />
		<path d="m45.219 36.008h-11.534v3.5h11.534a1.75 1.75 0 0 0 0-3.5z" fill="#fcf9f0" />
		<path d="m45.219 37.758a5.469 5.469 0 1 1 5.468 5.469 5.469 5.469 0 0 1 -5.468-5.469z" fill="#ffc839" />
		<path d="m82.781 37.758a5.469 5.469 0 1 0 -5.469 5.469 5.469 5.469 0 0 0 5.469-5.469z" fill="#ffc839" />
		<rect fill="#4fabf7" height="12.5" rx="2" width="14.375" x="1.75" y="57.747" />
		<rect fill="#4fabf7" height="12.5" rx="2" width="14.375" x="111.875" y="57.747" />
		<path d="m94.315 62.247h-11.534a1.75 1.75 0 0 0 0 3.5h11.534z" fill="#fcf9f0" />
		<path d="m71.844 65.747h-15.688a1.75 1.75 0 1 1 0-3.5h15.688a1.75 1.75 0 0 1 0 3.5z" fill="#fcf9f0" />
		<path d="m45.219 62.247h-11.534v3.5h11.534a1.75 1.75 0 1 0 0-3.5z" fill="#fcf9f0" />
		<path d="m45.219 64a5.469 5.469 0 1 1 5.468 5.469 5.469 5.469 0 0 1 -5.468-5.469z" fill="#ffc839" />
		<path d="m82.781 64a5.469 5.469 0 1 0 -5.469 5.469 5.469 5.469 0 0 0 5.469-5.469z" fill="#ffc839" />
		<rect fill="#4fabf7" height="12.5" rx="2" width="14.375" x="1.75" y="83.986" />
		<rect fill="#4fabf7" height="12.5" rx="2" width="14.375" x="111.875" y="83.986" />
		<path d="m94.315 88.486h-11.534a1.75 1.75 0 0 0 0 3.5h11.534z" fill="#fcf9f0" />
		<path d="m71.844 91.986h-15.688a1.75 1.75 0 1 1 0-3.5h15.688a1.75 1.75 0 0 1 0 3.5z" fill="#fcf9f0" />
		<path d="m45.219 88.486h-11.534v3.5h11.534a1.75 1.75 0 1 0 0-3.5z" fill="#fcf9f0" />
		<path d="m45.219 90.236a5.469 5.469 0 1 1 5.468 5.469 5.469 5.469 0 0 1 -5.468-5.469z" fill="#ffc839" />
		<path d="m82.781 90.236a5.469 5.469 0 1 0 -5.469 5.469 5.469 5.469 0 0 0 5.469-5.469z" fill="#ffc839" />
		<path d="m78.781 22.875h-29.562a4 4 0 0 1 -4-4v-7.128h37.562v7.128a4 4 0 0 1 -4 4z" fill="#6fd832" />
		<path d="m78.781 105.119h-29.562a4 4 0 0 0 -4 4v7.128h37.562v-7.128a4 4 0 0 0 -4-4z" fill="#6fd832" />
	</g>
</svg>